<?xml version="1.0" encoding="UTF-8" standalone="no"?>
<svg
   xmlns:dc="http://purl.org/dc/elements/1.1/"
   xmlns:cc="http://creativecommons.org/ns#"
   xmlns:rdf="http://www.w3.org/1999/02/22-rdf-syntax-ns#"
   xmlns:svg="http://www.w3.org/2000/svg"
   xmlns="http://www.w3.org/2000/svg"
   xmlns:sodipodi="http://sodipodi.sourceforge.net/DTD/sodipodi-0.dtd"
   xmlns:inkscape="http://www.inkscape.org/namespaces/inkscape"
   width="210mm"
   height="297mm"
   viewBox="0 0 210 297"
   version="1.1"
   id="svg4426"
   inkscape:version="1.0.2 (e86c870879, 2021-01-15)"
   sodipodi:docname="cutout_startout.svg">
  <defs
     id="defs4420" />
  <sodipodi:namedview
     id="base"
     pagecolor="#ffffff"
     bordercolor="#666666"
     borderopacity="1.0"
     inkscape:pageopacity="0.0"
     inkscape:pageshadow="2"
     inkscape:zoom="0.98994949"
     inkscape:cx="1108.4283"
     inkscape:cy="746.97874"
     inkscape:document-units="mm"
     inkscape:current-layer="layer1"
     inkscape:document-rotation="0"
     showgrid="false"
     inkscape:window-width="2560"
     inkscape:window-height="1406"
     inkscape:window-x="2560"
     inkscape:window-y="18"
     inkscape:window-maximized="0"
     showguides="true" />
  <metadata
     id="metadata4423">
    <rdf:RDF>
      <cc:Work
         rdf:about="">
        <dc:format>image/svg+xml</dc:format>
        <dc:type
           rdf:resource="http://purl.org/dc/dcmitype/StillImage" />
        <dc:title></dc:title>
      </cc:Work>
    </rdf:RDF>
  </metadata>
  <g
     inkscape:label="Layer 1"
     inkscape:groupmode="layer"
     id="layer1">
    <path
       d="m 18.140518,124.98625 15.2856,25.1483"
       style="fill:none;stroke:#000000;stroke-width:0.264583"
       id="path42" />
    <path
       d="m 33.426118,150.13455 3.552801,5.8453"
       style="fill:none;stroke:#000000;stroke-width:0.264583"
       id="path44" />
    <path
       d="m 36.978919,155.97985 -2.9684,2.4908"
       style="fill:none;stroke:#000000;stroke-width:0.264583"
       id="path46" />
    <path
       d="m 34.010519,158.47065 -5.141402,4.3141"
       style="fill:none;stroke:#000000;stroke-width:0.264583"
       id="path48" />
    <path
       d="m 28.869117,162.78475 -0.0294,0.0247"
       style="fill:none;stroke:#000000;stroke-width:0.264583"
       id="path50" />
    <path
       d="m 28.839719,162.80945 v 0"
       style="fill:none;stroke:#000000;stroke-width:0.264583"
       id="path52" />
    <path
       d="m 28.839719,162.80945 -0.0341,0.0286"
       style="fill:none;stroke:#000000;stroke-width:0.264583"
       id="path54" />
    <path
       d="m 28.805617,162.83805 -0.673999,0.8219"
       style="fill:none;stroke:#000000;stroke-width:0.264583"
       id="path56" />
    <path
       d="m 28.131618,163.65995 -0.5819,0.7095"
       style="fill:none;stroke:#000000;stroke-width:0.264583"
       id="path58" />
    <path
       d="m 27.549718,164.36945 2.087699,5.597"
       style="fill:none;stroke:#000000;stroke-width:0.264583"
       id="path60" />
    <path
       d="m 29.637417,169.96645 1.445702,3.8756"
       style="fill:none;stroke:#000000;stroke-width:0.264583"
       id="path62" />
    <path
       d="m 31.083119,173.84205 -7.988601,10.2249"
       style="fill:none;stroke:#000000;stroke-width:0.264583"
       id="path64" />
    <path
       d="m 23.094518,184.06695 -0.6605,0.8454"
       style="fill:none;stroke:#000000;stroke-width:0.264583"
       id="path66" />
    <path
       d="m 22.434018,184.91235 -0.0469,0.06"
       style="fill:none;stroke:#000000;stroke-width:0.264583"
       id="path68" />
    <path
       d="m 22.387118,184.97235 v 0"
       style="fill:none;stroke:#000000;stroke-width:0.264583"
       id="path70" />
    <path
       d="m 22.387118,184.97235 -0.0036,0.005"
       style="fill:none;stroke:#000000;stroke-width:0.264583"
       id="path72" />
    <path
       d="m 22.383518,184.97695 0.1279,0.6421"
       style="fill:none;stroke:#000000;stroke-width:0.264583"
       id="path74" />
    <path
       d="m 22.511418,185.61905 0.2568,1.2892"
       style="fill:none;stroke:#000000;stroke-width:0.264583"
       id="path76" />
    <path
       d="m 22.768218,186.90825 1.3064,6.9839"
       style="fill:none;stroke:#000000;stroke-width:0.264583"
       id="path78" />
    <path
       d="m 24.074618,193.89215 0.0253,0.0215"
       style="fill:none;stroke:#000000;stroke-width:0.264583"
       id="path80" />
    <path
       d="m 24.099918,193.91365 0.0511,0.0433"
       style="fill:none;stroke:#000000;stroke-width:0.264583"
       id="path82" />
    <path
       d="m 24.151018,193.95695 v 0"
       style="fill:none;stroke:#000000;stroke-width:0.264583"
       id="path84" />
    <path
       d="m 24.151018,193.95695 9.640101,8.1824"
       style="fill:none;stroke:#000000;stroke-width:0.264583"
       id="path86" />
    <path
       d="m 33.791119,202.13935 3.074598,2.6096"
       style="fill:none;stroke:#000000;stroke-width:0.264583"
       id="path88" />
    <path
       d="m 36.865717,204.74895 v 0"
       style="fill:none;stroke:#000000;stroke-width:0.264583"
       id="path90" />
    <path
       d="m 36.865717,204.74895 0.0596,0.0506"
       style="fill:none;stroke:#000000;stroke-width:0.264583"
       id="path92" />
    <path
       d="m 36.925317,204.79955 0.0168,0.0142"
       style="fill:none;stroke:#000000;stroke-width:0.264583"
       id="path94" />
    <path
       d="m 36.942118,204.81375 3.750601,0.9751"
       style="fill:none;stroke:#000000;stroke-width:0.264583"
       id="path96" />
    <path
       d="m 40.692719,205.78885 2.503498,0.0113"
       style="fill:none;stroke:#000000;stroke-width:0.264583"
       id="path98" />
    <path
       d="m 43.196217,205.80015 v 0"
       style="fill:none;stroke:#000000;stroke-width:0.264583"
       id="path100" />
    <path
       d="m 43.196217,205.80015 5.487601,5.5303"
       style="fill:none;stroke:#000000;stroke-width:0.264583"
       id="path102" />
    <path
       d="m 48.683818,211.33045 6.624201,6.6758"
       style="fill:none;stroke:#000000;stroke-width:0.264583"
       id="path104" />
    <path
       d="m 55.308019,218.00625 0.0149,0.015"
       style="fill:none;stroke:#000000;stroke-width:0.264583"
       id="path106" />
    <path
       d="m 55.322918,218.02125 0.4493,0.053"
       style="fill:none;stroke:#000000;stroke-width:0.264583"
       id="path108" />
    <path
       d="m 55.772218,218.07425 2.422601,0.285"
       style="fill:none;stroke:#000000;stroke-width:0.264583"
       id="path110" />
    <path
       d="m 58.194819,218.35925 5.6613,0.038"
       style="fill:none;stroke:#000000;stroke-width:0.264583"
       id="path112" />
    <path
       d="m 63.856119,218.39725 1.706698,-0.841"
       style="fill:none;stroke:#000000;stroke-width:0.264583"
       id="path114" />
    <path
       d="m 65.562817,217.55625 0.150902,-0.074"
       style="fill:none;stroke:#000000;stroke-width:0.264583"
       id="path116" />
    <path
       d="m 65.713719,217.48225 v 0"
       style="fill:none;stroke:#000000;stroke-width:0.264583"
       id="path118" />
    <path
       d="m 65.713719,217.48225 0.004,-0.006"
       style="fill:none;stroke:#000000;stroke-width:0.264583"
       id="path120" />
    <path
       d="m 65.717717,217.47625 0.0453,-0.062"
       style="fill:none;stroke:#000000;stroke-width:0.264583"
       id="path122" />
    <path
       d="m 65.763019,217.41425 4.201099,-5.7825"
       style="fill:none;stroke:#000000;stroke-width:0.264583"
       id="path124" />
    <path
       d="m 69.964118,211.63175 2.01e-4,-2.6e-4"
       style="fill:none;stroke:#000000;stroke-width:0.264583"
       id="path126" />
    <path
       d="m 69.964319,211.63145 4.2667,-5.8727"
       style="fill:none;stroke:#000000;stroke-width:0.264583"
       id="path128" />
    <path
       d="m 74.231019,205.75875 0.01109,-0.0152"
       style="fill:none;stroke:#000000;stroke-width:0.264583"
       id="path130" />
    <path
       d="m 74.242118,205.74355 0.02439,-0.0336"
       style="fill:none;stroke:#000000;stroke-width:0.264583"
       id="path132" />
    <path
       d="m 74.266518,205.70995 v 0"
       style="fill:none;stroke:#000000;stroke-width:0.264583"
       id="path134" />
    <path
       d="m 74.266518,205.70995 -0.3282,-2.1299"
       style="fill:none;stroke:#000000;stroke-width:0.264583"
       id="path136" />
    <path
       d="m 73.938318,203.58005 -0.349601,-2.2685"
       style="fill:none;stroke:#000000;stroke-width:0.264583"
       id="path138" />
    <path
       d="m 73.588717,201.31155 3.168501,-3.5191"
       style="fill:none;stroke:#000000;stroke-width:0.264583"
       id="path142" />
    <path
       d="m 76.757218,197.79245 5.956901,-6.6158"
       style="fill:none;stroke:#000000;stroke-width:0.264583"
       id="path144" />
    <path
       d="m 82.714119,191.17665 8.721098,-5.6656"
       style="fill:none;stroke:#000000;stroke-width:0.264583"
       id="path146" />
    <path
       d="m 91.435217,185.51105 2.64e-4,-2e-4"
       style="fill:none;stroke:#000000;stroke-width:0.264583"
       id="path148" />
    <path
       d="m 91.435518,185.51085 4.3067,-2.7978"
       style="fill:none;stroke:#000000;stroke-width:0.264583"
       id="path150" />
    <path
       d="m 95.742218,182.71305 4.681602,-2.4403"
       style="fill:none;stroke:#000000;stroke-width:0.264583"
       id="path152" />
    <path
       d="m 100.42382,180.27275 2.6e-4,-2e-4"
       style="fill:none;stroke:#000000;stroke-width:0.264583"
       id="path154" />
    <path
       d="m 100.42412,180.27255 11.73011,-6.1143"
       style="fill:none;stroke:#000000;stroke-width:0.264583"
       id="path156" />
    <path
       d="m 112.15423,174.15825 h 5.33799"
       style="fill:none;stroke:#000000;stroke-width:0.264583"
       id="path158" />
    <path
       d="m 117.49222,174.15825 h 0.0361"
       style="fill:none;stroke:#000000;stroke-width:0.264583"
       id="path160" />
    <path
       d="m 117.5283,174.15825 h 11.19152"
       style="fill:none;stroke:#000000;stroke-width:0.264583"
       id="path162" />
    <path
       d="m 128.71982,174.15825 1.2315,3.3884"
       style="fill:none;stroke:#000000;stroke-width:0.264583"
       id="path164" />
    <path
       d="m 129.95132,177.54665 3.1296,8.6116"
       style="fill:none;stroke:#000000;stroke-width:0.264583"
       id="path166" />
    <path
       d="m 133.08092,186.15825 v 0"
       style="fill:none;stroke:#000000;stroke-width:0.264583"
       id="path168" />
    <path
       d="m 133.08092,186.15825 h 5.2357"
       style="fill:none;stroke:#000000;stroke-width:0.264583"
       id="path170" />
    <path
       d="m 138.31662,186.15825 h 0.0331"
       style="fill:none;stroke:#000000;stroke-width:0.264583"
       id="path172" />
    <path
       d="m 138.34972,186.15825 h 11.7495"
       style="fill:none;stroke:#000000;stroke-width:0.264583"
       id="path174" />
    <path
       d="m 150.09922,186.15825 h 0.8888"
       style="fill:none;stroke:#000000;stroke-width:0.264583"
       id="path176" />
    <path
       d="m 150.98802,186.15825 h 0.0314"
       style="fill:none;stroke:#000000;stroke-width:0.264583"
       id="path178" />
    <path
       d="m 151.01942,186.15825 h 2.0273"
       style="fill:none;stroke:#000000;stroke-width:0.264583"
       id="path180" />
    <path
       d="m 153.04672,186.15825 h 5.6245"
       style="fill:none;stroke:#000000;stroke-width:0.264583"
       id="path182" />
    <path
       d="m 158.67122,186.15825 h 11.6284"
       style="fill:none;stroke:#000000;stroke-width:0.264583"
       id="path184" />
    <path
       d="m 170.29962,186.15825 2.5159,-2.2872"
       style="fill:none;stroke:#000000;stroke-width:0.264583"
       id="path186" />
    <path
       d="m 172.81552,183.87105 4.1524,-3.775"
       style="fill:none;stroke:#000000;stroke-width:0.264583"
       id="path188" />
    <path
       d="m 176.96792,180.09605 6.5816,-14.8505"
       style="fill:none;stroke:#000000;stroke-width:0.264583"
       id="path190" />
    <path
       d="m 183.54952,165.24555 2.9409,-6.6357"
       style="fill:none;stroke:#000000;stroke-width:0.264583"
       id="path192" />
    <g
       id="g6047">
      <path
         d="m 186.49042,158.60985 0.091,-0.2797"
         style="fill:none;stroke:#000000;stroke-width:0.264583"
         id="path194" />
      <path
         d="m 186.58142,158.33015 0.2037,-0.6261"
         style="fill:none;stroke:#000000;stroke-width:0.264583"
         id="path196" />
      <path
         d="m 186.78512,157.70405 -0.001,-0.0544"
         style="fill:none;stroke:#000000;stroke-width:0.264583"
         id="path198" />
      <path
         d="m 186.78382,157.64965 -0.2802,-12.0006"
         style="fill:none;stroke:#000000;stroke-width:0.264583"
         id="path200" />
      <path
         d="m 186.50362,145.64905 -0.0964,-4.1245"
         style="fill:none;stroke:#000000;stroke-width:0.264583"
         id="path202" />
      <path
         d="m 186.40722,141.52455 -0.02,-1.7437"
         style="fill:none;stroke:#000000;stroke-width:0.264583"
         id="path204" />
      <path
         d="m 186.38722,139.78085 -0.0567,-4.9446"
         style="fill:none;stroke:#000000;stroke-width:0.264583"
         id="path206" />
      <path
         d="m 186.33052,134.83625 v -16.65"
         style="fill:none;stroke:#000000;stroke-width:0.264583"
         id="path208" />
      <path
         d="m 186.33052,118.18625 0.0567,-4.94459"
         style="fill:none;stroke:#000000;stroke-width:0.264583"
         id="path210" />
      <path
         d="m 186.38722,113.24166 0.02,-1.74368"
         style="fill:none;stroke:#000000;stroke-width:0.264583"
         id="path212" />
      <path
         d="m 186.40722,111.49798 0.0964,-4.12456"
         style="fill:none;stroke:#000000;stroke-width:0.264583"
         id="path214" />
      <path
         d="m 186.50362,107.37342 0.2792,-11.958467"
         style="fill:none;stroke:#000000;stroke-width:0.264583"
         id="path216" />
      <path
         d="m 186.78282,95.414953 0.1107,-3.066601"
         style="fill:none;stroke:#000000;stroke-width:0.264583"
         id="path218" />
      <path
         d="m 186.89352,92.348352 0.1143,-3.165998"
         style="fill:none;stroke:#000000;stroke-width:0.264583"
         id="path220" />
      <path
         d="m 187.00782,89.182354 0.3686,-7.3245"
         style="fill:none;stroke:#000000;stroke-width:0.264583"
         id="path222" />
      <path
         d="m 187.37642,81.857854 0.357,-7.0948"
         style="fill:none;stroke:#000000;stroke-width:0.264583"
         id="path224" />
      <path
         d="m 187.73342,74.763054 v 0"
         style="fill:none;stroke:#000000;stroke-width:0.264583"
         id="path226" />
      <path
         d="m 187.73342,74.763054 v 0"
         style="fill:none;stroke:#000000;stroke-width:0.264583"
         id="path228" />
      <path
         d="m 187.73342,74.763054 0.002,-0.0303"
         style="fill:none;stroke:#000000;stroke-width:0.264583"
         id="path230" />
      <path
         d="m 187.73492,74.732754 0.003,-0.0563"
         style="fill:none;stroke:#000000;stroke-width:0.264583"
         id="path232" />
      <path
         d="m 187.73782,74.676453 -0.1033,-0.683699"
         style="fill:none;stroke:#000000;stroke-width:0.264583"
         id="path234" />
      <path
         d="m 187.63452,73.992754 -0.1609,-1.0663"
         style="fill:none;stroke:#000000;stroke-width:0.264583"
         id="path236" />
    </g>
    <path
       d="m 187.47362,72.926454 -4.063,-3.693601"
       style="fill:none;stroke:#000000;stroke-width:0.264583"
       id="path238" />
    <path
       d="m 183.41062,69.232853 -2.6053,-2.368601"
       style="fill:none;stroke:#000000;stroke-width:0.264583"
       id="path240" />
    <path
       d="m 180.80532,66.864252 h -3.8843"
       style="fill:none;stroke:#000000;stroke-width:0.264583"
       id="path242" />
    <path
       d="m 176.92102,66.864252 h -1.9436"
       style="fill:none;stroke:#000000;stroke-width:0.264583"
       id="path244" />
    <path
       d="m 174.97742,66.864252 h -11.4848"
       style="fill:none;stroke:#000000;stroke-width:0.264583"
       id="path246" />
    <path
       d="m 163.49262,66.864252 h -5.7012"
       style="fill:none;stroke:#000000;stroke-width:0.264583"
       id="path248" />
    <path
       d="m 157.79142,66.864252 h -5.2601"
       style="fill:none;stroke:#000000;stroke-width:0.264583"
       id="path250" />
    <path
       d="m 152.53132,66.864252 h -0.0322"
       style="fill:none;stroke:#000000;stroke-width:0.264583"
       id="path252" />
    <path
       d="m 152.49912,66.864252 h -2.3999"
       style="fill:none;stroke:#000000;stroke-width:0.264583"
       id="path254" />
    <path
       d="m 150.09922,66.864252 h -11.7495"
       style="fill:none;stroke:#000000;stroke-width:0.264583"
       id="path256" />
    <path
       d="m 138.34972,66.864252 h -0.0331"
       style="fill:none;stroke:#000000;stroke-width:0.264583"
       id="path258" />
    <path
       d="m 138.31662,66.864252 h -5.1372"
       style="fill:none;stroke:#000000;stroke-width:0.264583"
       id="path260" />
    <path
       d="m 133.17942,66.864252 -1.0672,-3.056699"
       style="fill:none;stroke:#000000;stroke-width:0.264583"
       id="path262" />
    <path
       d="m 132.11222,63.807553 -2.5113,-7.193299"
       style="fill:none;stroke:#000000;stroke-width:0.264583"
       id="path264" />
    <path
       d="m 129.60092,56.614254 -0.5505,-1.2281"
       style="fill:none;stroke:#000000;stroke-width:0.264583"
       id="path266" />
    <path
       d="m 129.05042,55.386154 -0.234,-0.521901"
       style="fill:none;stroke:#000000;stroke-width:0.264583"
       id="path268" />
    <path
       d="M 128.81642,54.864253 H 117.5283"
       style="fill:none;stroke:#000000;stroke-width:0.264583"
       id="path270" />
    <path
       d="m 117.5283,54.864253 h -0.0361"
       style="fill:none;stroke:#000000;stroke-width:0.264583"
       id="path272" />
    <path
       d="m 117.49222,54.864253 h -5.33799"
       style="fill:none;stroke:#000000;stroke-width:0.264583"
       id="path274" />
    <path
       d="m 112.15423,54.864253 -2.85974,-2.015498"
       style="fill:none;stroke:#000000;stroke-width:0.264583"
       id="path276" />
    <path
       d="m 109.29449,52.848755 -1.14141,-0.8045"
       style="fill:none;stroke:#000000;stroke-width:0.264583"
       id="path278" />
    <path
       d="M 108.15308,52.044255 H 97.003616"
       style="fill:none;stroke:#000000;stroke-width:0.264583"
       id="path280" />
    <path
       d="m 97.003616,52.044255 h -0.0352"
       style="fill:none;stroke:#000000;stroke-width:0.264583"
       id="path282" />
    <path
       d="M 96.968419,52.044255 H 91.874518"
       style="fill:none;stroke:#000000;stroke-width:0.264583"
       id="path284" />
    <path
       d="m 91.874518,52.044255 h -0.02511"
       style="fill:none;stroke:#000000;stroke-width:0.264583"
       id="path286" />
    <path
       d="m 91.849417,52.044255 -0.367999,0.656698"
       style="fill:none;stroke:#000000;stroke-width:0.264583"
       id="path288" />
    <path
       d="m 91.481418,52.700953 -1.212101,2.1633"
       style="fill:none;stroke:#000000;stroke-width:0.264583"
       id="path290" />
    <path
       d="m 90.269317,54.864253 h -11.9684"
       style="fill:none;stroke:#000000;stroke-width:0.264583"
       id="path292" />
    <path
       d="m 78.300917,54.864253 h -3.6473"
       style="fill:none;stroke:#000000;stroke-width:0.264583"
       id="path294" />
    <path
       d="m 74.653617,54.864253 h -0.0181"
       style="fill:none;stroke:#000000;stroke-width:0.264583"
       id="path296" />
    <path
       d="m 74.635517,54.864253 -0.5114,0.388202"
       style="fill:none;stroke:#000000;stroke-width:0.264583"
       id="path298" />
    <path
       d="m 74.124117,55.252455 -2.123498,1.611799"
       style="fill:none;stroke:#000000;stroke-width:0.264583"
       id="path300" />
    <path
       d="M 72.000619,56.864254 H 59.980818"
       style="fill:none;stroke:#000000;stroke-width:0.264583"
       id="path302" />
    <path
       d="M 59.980818,56.864254 H 57.076119"
       style="fill:none;stroke:#000000;stroke-width:0.264583"
       id="path304" />
    <path
       d="M 57.076119,56.864254 H 54.988718"
       style="fill:none;stroke:#000000;stroke-width:0.264583"
       id="path306" />
    <path
       d="m 54.988718,56.864254 h -0.01479"
       style="fill:none;stroke:#000000;stroke-width:0.264583"
       id="path308" />
    <path
       d="M 54.973919,56.864254 H 54.570118"
       style="fill:none;stroke:#000000;stroke-width:0.264583"
       id="path310" />
    <path
       d="M 54.570118,56.864254 H 42.734019"
       style="fill:none;stroke:#000000;stroke-width:0.264583"
       id="path312" />
    <path
       d="m 42.734019,56.864254 h -0.0154"
       style="fill:none;stroke:#000000;stroke-width:0.264583"
       id="path314" />
    <path
       d="m 42.718618,56.864254 h -2.2806"
       style="fill:none;stroke:#000000;stroke-width:0.264583"
       id="path316" />
    <path
       d="m 40.438018,56.864254 h -0.01151"
       style="fill:none;stroke:#000000;stroke-width:0.264583"
       id="path318" />
    <path
       d="m 40.426519,56.864254 -5.445701,2.375598"
       style="fill:none;stroke:#000000;stroke-width:0.264583"
       id="path320" />
    <path
       d="m 34.980818,59.239852 -0.8864,0.386602"
       style="fill:none;stroke:#000000;stroke-width:0.264583"
       id="path322" />
    <path
       d="m 34.094418,59.626454 -7,6.999999"
       style="fill:none;stroke:#000000;stroke-width:0.264583"
       id="path324" />
    <path
       d="m 27.094418,66.626453 -0.8531,2.5762"
       style="fill:none;stroke:#000000;stroke-width:0.264583"
       id="path326" />
    <path
       d="m 26.241318,69.202653 -3.9792,12.016301"
       style="fill:none;stroke:#000000;stroke-width:0.264583"
       id="path328" />
    <path
       d="m 22.262118,81.218954 -0.2199,0.925599"
       style="fill:none;stroke:#000000;stroke-width:0.264583"
       id="path330" />
    <path
       d="m 22.042218,82.144553 -0.9882,4.1592"
       style="fill:none;stroke:#000000;stroke-width:0.264583"
       id="path332" />
    <path
       d="m 21.054018,86.303753 -0.4867,3.1667"
       style="fill:none;stroke:#000000;stroke-width:0.264583"
       id="path334" />
    <path
       d="m 20.567318,89.470453 -2.0147,13.109197"
       style="fill:none;stroke:#000000;stroke-width:0.264583"
       id="path336" />
    <path
       d="m 18.552618,102.57965 -0.3319,4.39496"
       style="fill:none;stroke:#000000;stroke-width:0.264583"
       id="path338" />
    <path
       d="m 18.220718,106.97461 -0.0802,1.06165"
       style="fill:none;stroke:#000000;stroke-width:0.264583"
       id="path340" />
    <path
       d="m 18.140518,108.03626 v 16.94999"
       style="fill:none;stroke:#000000;stroke-width:0.264583"
       id="path342" />
    <path
       d="m 32.028319,165.54975 0.0371,-0.3534"
       style="fill:none;stroke:#000000;stroke-width:0.264583"
       id="path1028" />
    <path
       d="m 32.065419,165.19635 0.109799,-0.338"
       style="fill:none;stroke:#000000;stroke-width:0.264583"
       id="path1030" />
    <path
       d="m 32.175218,164.85835 0.1777,-0.3078"
       style="fill:none;stroke:#000000;stroke-width:0.264583"
       id="path1032" />
    <path
       d="m 32.352918,164.55055 0.237799,-0.2641"
       style="fill:none;stroke:#000000;stroke-width:0.264583"
       id="path1034" />
    <path
       d="m 32.590717,164.28645 0.2876,-0.2089"
       style="fill:none;stroke:#000000;stroke-width:0.264583"
       id="path1036" />
    <path
       d="m 32.878317,164.07755 0.324601,-0.1446"
       style="fill:none;stroke:#000000;stroke-width:0.264583"
       id="path1038" />
    <path
       d="m 33.202918,163.93295 0.3477,-0.0738"
       style="fill:none;stroke:#000000;stroke-width:0.264583"
       id="path1040" />
    <path
       d="m 33.550618,163.85915 h 0.355401"
       style="fill:none;stroke:#000000;stroke-width:0.264583"
       id="path1042" />
    <path
       d="m 33.906019,163.85915 0.347599,0.0738"
       style="fill:none;stroke:#000000;stroke-width:0.264583"
       id="path1044" />
    <path
       d="m 34.253618,163.93295 0.3247,0.1446"
       style="fill:none;stroke:#000000;stroke-width:0.264583"
       id="path1046" />
    <path
       d="m 34.578318,164.07755 0.287501,0.2089"
       style="fill:none;stroke:#000000;stroke-width:0.264583"
       id="path1048" />
    <path
       d="m 34.865819,164.28645 0.2378,0.2641"
       style="fill:none;stroke:#000000;stroke-width:0.264583"
       id="path1050" />
    <path
       d="m 35.103619,164.55055 0.177699,0.3078"
       style="fill:none;stroke:#000000;stroke-width:0.264583"
       id="path1052" />
    <path
       d="m 35.281318,164.85835 0.1098,0.338"
       style="fill:none;stroke:#000000;stroke-width:0.264583"
       id="path1054" />
    <path
       d="m 35.391118,165.19635 0.0372,0.3534"
       style="fill:none;stroke:#000000;stroke-width:0.264583"
       id="path1056" />
    <path
       d="m 35.428318,165.54975 -0.0372,0.3535"
       style="fill:none;stroke:#000000;stroke-width:0.264583"
       id="path1058" />
    <path
       d="m 35.391118,165.90325 -0.1098,0.338"
       style="fill:none;stroke:#000000;stroke-width:0.264583"
       id="path1060" />
    <path
       d="m 35.281318,166.24125 -0.177699,0.3078"
       style="fill:none;stroke:#000000;stroke-width:0.264583"
       id="path1062" />
    <path
       d="m 35.103619,166.54905 -0.2378,0.2641"
       style="fill:none;stroke:#000000;stroke-width:0.264583"
       id="path1064" />
    <path
       d="m 34.865819,166.81315 -0.287501,0.2089"
       style="fill:none;stroke:#000000;stroke-width:0.264583"
       id="path1066" />
    <path
       d="m 34.578318,167.02205 -0.3247,0.1445"
       style="fill:none;stroke:#000000;stroke-width:0.264583"
       id="path1068" />
    <path
       d="m 34.253618,167.16655 -0.347599,0.0739"
       style="fill:none;stroke:#000000;stroke-width:0.264583"
       id="path1070" />
    <path
       d="M 33.906019,167.24045 H 33.550618"
       style="fill:none;stroke:#000000;stroke-width:0.264583"
       id="path1072" />
    <path
       d="m 33.550618,167.24045 -0.3477,-0.0739"
       style="fill:none;stroke:#000000;stroke-width:0.264583"
       id="path1074" />
    <path
       d="m 33.202918,167.16655 -0.324599,-0.1445"
       style="fill:none;stroke:#000000;stroke-width:0.264583"
       id="path1076" />
    <path
       d="m 32.878317,167.02205 -0.2876,-0.2089"
       style="fill:none;stroke:#000000;stroke-width:0.264583"
       id="path1078" />
    <path
       d="m 32.590717,166.81315 -0.237799,-0.2641"
       style="fill:none;stroke:#000000;stroke-width:0.264583"
       id="path1080" />
    <path
       d="m 32.352918,166.54905 -0.1777,-0.3078"
       style="fill:none;stroke:#000000;stroke-width:0.264583"
       id="path1082" />
    <path
       d="m 32.175218,166.24125 -0.109799,-0.338"
       style="fill:none;stroke:#000000;stroke-width:0.264583"
       id="path1084" />
    <path
       d="m 32.065419,165.90325 -0.0371,-0.3535"
       style="fill:none;stroke:#000000;stroke-width:0.264583"
       id="path1086" />
    <path
       d="m 96.776919,175.97135 0.0371,-0.3534"
       style="fill:none;stroke:#000000;stroke-width:0.264583"
       id="path1088" />
    <path
       d="m 96.814019,175.61795 0.1099,-0.338"
       style="fill:none;stroke:#000000;stroke-width:0.264583"
       id="path1090" />
    <path
       d="m 96.923919,175.27995 0.177699,-0.3078"
       style="fill:none;stroke:#000000;stroke-width:0.264583"
       id="path1092" />
    <path
       d="m 97.101618,174.97215 0.2378,-0.2641"
       style="fill:none;stroke:#000000;stroke-width:0.264583"
       id="path1094" />
    <path
       d="m 97.339418,174.70805 0.287498,-0.2089"
       style="fill:none;stroke:#000000;stroke-width:0.264583"
       id="path1096" />
    <path
       d="m 97.626916,174.49915 0.324702,-0.1446"
       style="fill:none;stroke:#000000;stroke-width:0.264583"
       id="path1098" />
    <path
       d="m 97.951618,174.35455 0.347599,-0.0739"
       style="fill:none;stroke:#000000;stroke-width:0.264583"
       id="path1100" />
    <path
       d="m 98.299217,174.28065 h 0.355399"
       style="fill:none;stroke:#000000;stroke-width:0.264583"
       id="path1102" />
    <path
       d="m 98.654616,174.28065 0.347602,0.0739"
       style="fill:none;stroke:#000000;stroke-width:0.264583"
       id="path1104" />
    <path
       d="m 99.002218,174.35455 0.324699,0.1446"
       style="fill:none;stroke:#000000;stroke-width:0.264583"
       id="path1106" />
    <path
       d="m 99.326917,174.49915 0.287502,0.2089"
       style="fill:none;stroke:#000000;stroke-width:0.264583"
       id="path1108" />
    <path
       d="m 99.614419,174.70805 0.237799,0.2641"
       style="fill:none;stroke:#000000;stroke-width:0.264583"
       id="path1110" />
    <path
       d="m 99.852218,174.97215 0.177702,0.3078"
       style="fill:none;stroke:#000000;stroke-width:0.264583"
       id="path1112" />
    <path
       d="m 100.02992,175.27995 0.1098,0.338"
       style="fill:none;stroke:#000000;stroke-width:0.264583"
       id="path1114" />
    <path
       d="m 100.13972,175.61795 0.0372,0.3534"
       style="fill:none;stroke:#000000;stroke-width:0.264583"
       id="path1116" />
    <path
       d="m 100.17692,175.97135 -0.0372,0.3535"
       style="fill:none;stroke:#000000;stroke-width:0.264583"
       id="path1118" />
    <path
       d="m 100.13972,176.32485 -0.1098,0.338"
       style="fill:none;stroke:#000000;stroke-width:0.264583"
       id="path1120" />
    <path
       d="m 100.02992,176.66285 -0.177702,0.3078"
       style="fill:none;stroke:#000000;stroke-width:0.264583"
       id="path1122" />
    <path
       d="m 99.852218,176.97065 -0.237799,0.2641"
       style="fill:none;stroke:#000000;stroke-width:0.264583"
       id="path1124" />
    <path
       d="m 99.614419,177.23475 -0.287502,0.2089"
       style="fill:none;stroke:#000000;stroke-width:0.264583"
       id="path1126" />
    <path
       d="m 99.326917,177.44365 -0.324699,0.1445"
       style="fill:none;stroke:#000000;stroke-width:0.264583"
       id="path1128" />
    <path
       d="m 99.002218,177.58815 -0.347602,0.0739"
       style="fill:none;stroke:#000000;stroke-width:0.264583"
       id="path1130" />
    <path
       d="M 98.654616,177.66205 H 98.299217"
       style="fill:none;stroke:#000000;stroke-width:0.264583"
       id="path1132" />
    <path
       d="m 98.299217,177.66205 -0.347599,-0.0739"
       style="fill:none;stroke:#000000;stroke-width:0.264583"
       id="path1134" />
    <path
       d="m 97.951618,177.58815 -0.324702,-0.1445"
       style="fill:none;stroke:#000000;stroke-width:0.264583"
       id="path1136" />
    <path
       d="m 97.626916,177.44365 -0.287498,-0.2089"
       style="fill:none;stroke:#000000;stroke-width:0.264583"
       id="path1138" />
    <path
       d="m 97.339418,177.23475 -0.2378,-0.2641"
       style="fill:none;stroke:#000000;stroke-width:0.264583"
       id="path1140" />
    <path
       d="m 97.101618,176.97065 -0.177699,-0.3078"
       style="fill:none;stroke:#000000;stroke-width:0.264583"
       id="path1142" />
    <path
       d="m 96.923919,176.66285 -0.1099,-0.338"
       style="fill:none;stroke:#000000;stroke-width:0.264583"
       id="path1144" />
    <path
       d="m 96.814019,176.32485 -0.0371,-0.3535"
       style="fill:none;stroke:#000000;stroke-width:0.264583"
       id="path1146" />
    <path
       d="m 178.61502,72.972754 0.0371,-0.353499"
       style="fill:none;stroke:#000000;stroke-width:0.264583"
       id="path1148" />
    <path
       d="m 178.65212,72.619255 0.1099,-0.338003"
       style="fill:none;stroke:#000000;stroke-width:0.264583"
       id="path1150" />
    <path
       d="m 178.76202,72.281252 0.1777,-0.307798"
       style="fill:none;stroke:#000000;stroke-width:0.264583"
       id="path1152" />
    <path
       d="m 178.93972,71.973454 0.2378,-0.264102"
       style="fill:none;stroke:#000000;stroke-width:0.264583"
       id="path1154" />
    <path
       d="m 179.17752,71.709352 0.2875,-0.208899"
       style="fill:none;stroke:#000000;stroke-width:0.264583"
       id="path1156" />
    <path
       d="m 179.46502,71.500453 0.3247,-0.144499"
       style="fill:none;stroke:#000000;stroke-width:0.264583"
       id="path1158" />
    <path
       d="m 179.78972,71.355954 0.3476,-0.0739"
       style="fill:none;stroke:#000000;stroke-width:0.264583"
       id="path1160" />
    <path
       d="m 180.13732,71.282053 h 0.3554"
       style="fill:none;stroke:#000000;stroke-width:0.264583"
       id="path1162" />
    <path
       d="m 180.49272,71.282053 0.3476,0.0739"
       style="fill:none;stroke:#000000;stroke-width:0.264583"
       id="path1164" />
    <path
       d="m 180.84032,71.355954 0.3247,0.144499"
       style="fill:none;stroke:#000000;stroke-width:0.264583"
       id="path1166" />
    <path
       d="m 181.16502,71.500453 0.2875,0.208899"
       style="fill:none;stroke:#000000;stroke-width:0.264583"
       id="path1168" />
    <path
       d="m 181.45252,71.709352 0.2378,0.264102"
       style="fill:none;stroke:#000000;stroke-width:0.264583"
       id="path1170" />
    <path
       d="m 181.69032,71.973454 0.1777,0.307798"
       style="fill:none;stroke:#000000;stroke-width:0.264583"
       id="path1172" />
    <path
       d="m 181.86802,72.281252 0.1098,0.338003"
       style="fill:none;stroke:#000000;stroke-width:0.264583"
       id="path1174" />
    <path
       d="m 181.97782,72.619255 0.0372,0.353499"
       style="fill:none;stroke:#000000;stroke-width:0.264583"
       id="path1176" />
    <path
       d="m 182.01502,72.972754 -0.0372,0.353398"
       style="fill:none;stroke:#000000;stroke-width:0.264583"
       id="path1178" />
    <path
       d="m 181.97782,73.326152 -0.1098,0.338"
       style="fill:none;stroke:#000000;stroke-width:0.264583"
       id="path1180" />
    <path
       d="m 181.86802,73.664152 -0.1777,0.307801"
       style="fill:none;stroke:#000000;stroke-width:0.264583"
       id="path1182" />
    <path
       d="m 181.69032,73.971953 -0.2378,0.264101"
       style="fill:none;stroke:#000000;stroke-width:0.264583"
       id="path1184" />
    <path
       d="m 181.45252,74.236054 -0.2875,0.2089"
       style="fill:none;stroke:#000000;stroke-width:0.264583"
       id="path1186" />
    <path
       d="m 181.16502,74.444954 -0.3247,0.1446"
       style="fill:none;stroke:#000000;stroke-width:0.264583"
       id="path1188" />
    <path
       d="m 180.84032,74.589554 -0.3476,0.0738"
       style="fill:none;stroke:#000000;stroke-width:0.264583"
       id="path1190" />
    <path
       d="m 180.49272,74.663354 h -0.3554"
       style="fill:none;stroke:#000000;stroke-width:0.264583"
       id="path1192" />
    <path
       d="m 180.13732,74.663354 -0.3476,-0.0738"
       style="fill:none;stroke:#000000;stroke-width:0.264583"
       id="path1194" />
    <path
       d="m 179.78972,74.589554 -0.3247,-0.1446"
       style="fill:none;stroke:#000000;stroke-width:0.264583"
       id="path1196" />
    <path
       d="m 179.46502,74.444954 -0.2875,-0.2089"
       style="fill:none;stroke:#000000;stroke-width:0.264583"
       id="path1198" />
    <path
       d="m 179.17752,74.236054 -0.2378,-0.264101"
       style="fill:none;stroke:#000000;stroke-width:0.264583"
       id="path1200" />
    <path
       d="m 178.93972,73.971953 -0.1777,-0.307801"
       style="fill:none;stroke:#000000;stroke-width:0.264583"
       id="path1202" />
    <path
       d="m 178.76202,73.664152 -0.1099,-0.338"
       style="fill:none;stroke:#000000;stroke-width:0.264583"
       id="path1204" />
    <path
       d="m 178.65212,73.326152 -0.0371,-0.353398"
       style="fill:none;stroke:#000000;stroke-width:0.264583"
       id="path1206" />
    <path
       d="m 179.87062,159.04975 0.0372,-0.3534"
       style="fill:none;stroke:#000000;stroke-width:0.264583"
       id="path1208" />
    <path
       d="m 179.90782,158.69635 0.1098,-0.338"
       style="fill:none;stroke:#000000;stroke-width:0.264583"
       id="path1210" />
    <path
       d="m 180.01762,158.35835 0.1777,-0.3078"
       style="fill:none;stroke:#000000;stroke-width:0.264583"
       id="path1212" />
    <path
       d="m 180.19532,158.05055 0.2378,-0.2641"
       style="fill:none;stroke:#000000;stroke-width:0.264583"
       id="path1214" />
    <path
       d="m 180.43312,157.78645 0.2875,-0.2089"
       style="fill:none;stroke:#000000;stroke-width:0.264583"
       id="path1216" />
    <path
       d="m 180.72062,157.57755 0.3247,-0.1446"
       style="fill:none;stroke:#000000;stroke-width:0.264583"
       id="path1218" />
    <path
       d="m 181.04532,157.43295 0.3476,-0.0738"
       style="fill:none;stroke:#000000;stroke-width:0.264583"
       id="path1220" />
    <path
       d="m 181.39292,157.35915 h 0.3554"
       style="fill:none;stroke:#000000;stroke-width:0.264583"
       id="path1222" />
    <path
       d="m 181.74832,157.35915 0.3476,0.0738"
       style="fill:none;stroke:#000000;stroke-width:0.264583"
       id="path1224" />
    <path
       d="m 182.09592,157.43295 0.3247,0.1446"
       style="fill:none;stroke:#000000;stroke-width:0.264583"
       id="path1226" />
    <path
       d="m 182.42062,157.57755 0.2875,0.2089"
       style="fill:none;stroke:#000000;stroke-width:0.264583"
       id="path1228" />
    <path
       d="m 182.70812,157.78645 0.2378,0.2641"
       style="fill:none;stroke:#000000;stroke-width:0.264583"
       id="path1230" />
    <path
       d="m 182.94592,158.05055 0.1777,0.3078"
       style="fill:none;stroke:#000000;stroke-width:0.264583"
       id="path1232" />
    <path
       d="m 183.12362,158.35835 0.1099,0.338"
       style="fill:none;stroke:#000000;stroke-width:0.264583"
       id="path1234" />
    <path
       d="m 183.23352,158.69635 0.0371,0.3534"
       style="fill:none;stroke:#000000;stroke-width:0.264583"
       id="path1236" />
    <path
       d="m 183.27062,159.04975 -0.0371,0.3535"
       style="fill:none;stroke:#000000;stroke-width:0.264583"
       id="path1238" />
    <path
       d="m 183.23352,159.40325 -0.1099,0.338"
       style="fill:none;stroke:#000000;stroke-width:0.264583"
       id="path1240" />
    <path
       d="m 183.12362,159.74125 -0.1777,0.3078"
       style="fill:none;stroke:#000000;stroke-width:0.264583"
       id="path1242" />
    <path
       d="m 182.94592,160.04905 -0.2378,0.2641"
       style="fill:none;stroke:#000000;stroke-width:0.264583"
       id="path1244" />
    <path
       d="m 182.70812,160.31315 -0.2875,0.2089"
       style="fill:none;stroke:#000000;stroke-width:0.264583"
       id="path1246" />
    <path
       d="m 182.42062,160.52205 -0.3247,0.1445"
       style="fill:none;stroke:#000000;stroke-width:0.264583"
       id="path1248" />
    <path
       d="m 182.09592,160.66655 -0.3476,0.0739"
       style="fill:none;stroke:#000000;stroke-width:0.264583"
       id="path1250" />
    <path
       d="m 181.74832,160.74045 h -0.3554"
       style="fill:none;stroke:#000000;stroke-width:0.264583"
       id="path1252" />
    <path
       d="m 181.39292,160.74045 -0.3476,-0.0739"
       style="fill:none;stroke:#000000;stroke-width:0.264583"
       id="path1254" />
    <path
       d="m 181.04532,160.66655 -0.3247,-0.1445"
       style="fill:none;stroke:#000000;stroke-width:0.264583"
       id="path1256" />
    <path
       d="m 180.72062,160.52205 -0.2875,-0.2089"
       style="fill:none;stroke:#000000;stroke-width:0.264583"
       id="path1258" />
    <path
       d="m 180.43312,160.31315 -0.2378,-0.2641"
       style="fill:none;stroke:#000000;stroke-width:0.264583"
       id="path1260" />
    <path
       d="m 180.19532,160.04905 -0.1777,-0.3078"
       style="fill:none;stroke:#000000;stroke-width:0.264583"
       id="path1262" />
    <path
       d="m 180.01762,159.74125 -0.1098,-0.338"
       style="fill:none;stroke:#000000;stroke-width:0.264583"
       id="path1264" />
    <path
       d="m 179.90782,159.40325 -0.0372,-0.3535"
       style="fill:none;stroke:#000000;stroke-width:0.264583"
       id="path1266" />
    <g
       id="g4115"
       transform="matrix(0.26458333,0,0,0.26458333,-4.0399954,-0.68100809)">
      <path
         d="m 128.92376,257.58884 0.14022,-1.33568"
         style="fill:none;stroke:#000000"
         id="path1028-3" />
      <path
         d="m 129.06398,256.25316 0.41499,-1.27748"
         style="fill:none;stroke:#000000"
         id="path1030-6" />
      <path
         d="m 129.47897,254.97568 0.67162,-1.16334"
         style="fill:none;stroke:#000000"
         id="path1032-7" />
      <path
         d="m 130.15059,253.81234 0.89877,-0.99818"
         style="fill:none;stroke:#000000"
         id="path1034-5" />
      <path
         d="m 131.04936,252.81416 1.08699,-0.78954"
         style="fill:none;stroke:#000000"
         id="path1036-3" />
      <path
         d="m 132.13635,252.02462 1.22684,-0.54652"
         style="fill:none;stroke:#000000"
         id="path1038-5" />
      <path
         d="m 133.36319,251.4781 1.31414,-0.27893"
         style="fill:none;stroke:#000000"
         id="path1040-6" />
      <path
         d="m 134.67733,251.19917 h 1.34325"
         style="fill:none;stroke:#000000"
         id="path1042-2" />
      <path
         d="m 136.02058,251.19917 1.31376,0.27893"
         style="fill:none;stroke:#000000"
         id="path1044-9" />
      <path
         d="m 137.33434,251.4781 1.22721,0.54652"
         style="fill:none;stroke:#000000"
         id="path1046-1" />
      <path
         d="m 138.56155,252.02462 1.08662,0.78954"
         style="fill:none;stroke:#000000"
         id="path1048-2" />
      <path
         d="m 139.64817,252.81416 0.89877,0.99818"
         style="fill:none;stroke:#000000"
         id="path1050-7" />
      <path
         d="m 140.54694,253.81234 0.67162,1.16334"
         style="fill:none;stroke:#000000"
         id="path1052-0" />
      <path
         d="m 141.21856,254.97568 0.41499,1.27748"
         style="fill:none;stroke:#000000"
         id="path1054-9" />
      <path
         d="m 141.63355,256.25316 0.1406,1.33568"
         style="fill:none;stroke:#000000"
         id="path1056-3" />
      <path
         d="m 141.77415,257.58884 -0.1406,1.33606"
         style="fill:none;stroke:#000000"
         id="path1058-6" />
      <path
         d="m 141.63355,258.9249 -0.41499,1.27748"
         style="fill:none;stroke:#000000"
         id="path1060-0" />
      <path
         d="m 141.21856,260.20238 -0.67162,1.16334"
         style="fill:none;stroke:#000000"
         id="path1062-6" />
      <path
         d="m 140.54694,261.36572 -0.89877,0.99818"
         style="fill:none;stroke:#000000"
         id="path1064-2" />
      <path
         d="m 139.64817,262.3639 -1.08662,0.78954"
         style="fill:none;stroke:#000000"
         id="path1066-6" />
      <path
         d="m 138.56155,263.15344 -1.22721,0.54614"
         style="fill:none;stroke:#000000"
         id="path1068-1" />
      <path
         d="m 137.33434,263.69958 -1.31376,0.27931"
         style="fill:none;stroke:#000000"
         id="path1070-8" />
      <path
         d="m 136.02058,263.97889 h -1.34325"
         style="fill:none;stroke:#000000"
         id="path1072-7" />
      <path
         d="m 134.67733,263.97889 -1.31414,-0.27931"
         style="fill:none;stroke:#000000"
         id="path1074-9" />
      <path
         d="m 133.36319,263.69958 -1.22683,-0.54614"
         style="fill:none;stroke:#000000"
         id="path1076-2" />
      <path
         d="m 132.13635,263.15344 -1.08699,-0.78954"
         style="fill:none;stroke:#000000"
         id="path1078-0" />
      <path
         d="m 131.04936,262.3639 -0.89877,-0.99818"
         style="fill:none;stroke:#000000"
         id="path1080-2" />
      <path
         d="m 130.15059,261.36572 -0.67162,-1.16334"
         style="fill:none;stroke:#000000"
         id="path1082-3" />
      <path
         d="m 129.47897,260.20238 -0.41499,-1.27748"
         style="fill:none;stroke:#000000"
         id="path1084-7" />
      <path
         d="m 129.06398,258.9249 -0.14022,-1.33606"
         style="fill:none;stroke:#000000"
         id="path1086-5" />
    </g>
  </g>
</svg>
