<?xml version="1.0" standalone="no"?>
<!DOCTYPE svg PUBLIC "-//W3C//DTD SVG 1.1//EN" "http://www.w3.org/Graphics/SVG/1.1/DTD/svg11.dtd">
<svg width="171mm" height="167mm" viewBox="-100 -63 171 167" xmlns="http://www.w3.org/2000/svg" version="1.1">
<title>OpenSCAD Model</title>
<path d="
M -99.0314,10.475 L -83.7458,35.6233 L -80.193,41.4686 L -83.1614,43.9594 L -88.3028,48.2735 L -88.3322,48.2982
 L -88.3322,48.2982 L -88.3663,48.3268 L -89.0403,49.1487 L -89.6222,49.8582 L -87.5345,55.4552 L -86.0888,59.3308
 L -94.0774,69.5557 L -94.7379,70.4011 L -94.7848,70.4611 L -94.7848,70.4611 L -94.7884,70.4657 L -94.6605,71.1078
 L -94.4037,72.397 L -93.0973,79.3809 L -93.072,79.4024 L -93.0209,79.4457 L -93.0209,79.4457 L -83.3808,87.6281
 L -80.3062,90.2377 L -80.3062,90.2377 L -80.2466,90.2883 L -80.2298,90.3025 L -76.4792,91.2776 L -73.9757,91.2889
 L -73.9757,91.2889 L -68.4881,96.8192 L -61.8639,103.495 L -61.849,103.51 L -61.3997,103.563 L -58.9771,103.848
 L -53.3158,103.886 L -51.6091,103.045 L -51.4582,102.971 L -51.4582,102.971 L -51.4542,102.965 L -51.4089,102.903
 L -47.2078,97.1205 L -47.2076,97.1202 L -42.9409,91.2475 L -42.9298,91.2323 L -42.9054,91.1987 L -42.9054,91.1987
 L -43.2336,89.0688 L -43.5832,86.8003 L -43.5832,86.8003 L -40.4147,83.2812 L -34.4578,76.6654 L -25.7367,70.9998
 L -25.7364,70.9996 L -21.4297,68.2018 L -16.7481,65.7615 L -16.7478,65.7613 L -5.01769,59.647 L 0.320301,59.647
 L 0.356379,59.647 L 11.5479,59.647 L 12.7794,63.0354 L 15.909,71.647 L 15.909,71.647 L 21.1447,71.647
 L 21.1778,71.647 L 32.9273,71.647 L 33.8161,71.647 L 33.8475,71.647 L 35.8748,71.647 L 41.4993,71.647
 L 53.1277,71.647 L 55.6436,69.3598 L 59.796,65.5848 L 66.3776,50.7343 L 69.3185,44.0986 L 69.4095,43.8189
 L 69.6132,43.1928 L 69.6119,43.1384 L 69.3317,31.1378 L 69.2353,27.0133 L 69.2153,25.2696 L 69.1586,20.325
 L 69.1586,3.675 L 69.2153,-1.26959 L 69.2353,-3.01327 L 69.3317,-7.13783 L 69.6109,-19.0963 L 69.7216,-22.1629
 L 69.8359,-25.3289 L 70.2045,-32.6534 L 70.5615,-39.7482 L 70.5615,-39.7482 L 70.5615,-39.7482 L 70.563,-39.7785
 L 70.5659,-39.8348 L 70.4626,-40.5185 L 70.3017,-41.5848 L 66.2387,-45.2784 L 63.6334,-47.647 L 59.7491,-47.647
 L 57.8055,-47.647 L 46.3207,-47.647 L 40.6195,-47.647 L 35.3594,-47.647 L 35.3272,-47.647 L 32.9273,-47.647
 L 21.1778,-47.647 L 21.1447,-47.647 L 16.0075,-47.647 L 14.9403,-50.7037 L 12.429,-57.897 L 11.8785,-59.1251
 L 11.6445,-59.647 L 0.356379,-59.647 L 0.320301,-59.647 L -5.01769,-59.647 L -7.87743,-61.6625 L -9.01884,-62.467
 L -20.1683,-62.467 L -20.2035,-62.467 L -25.2974,-62.467 L -25.3225,-62.467 L -25.6905,-61.8103 L -26.9026,-59.647
 L -38.871,-59.647 L -42.5183,-59.647 L -42.5364,-59.647 L -43.0478,-59.2588 L -45.1713,-57.647 L -57.1911,-57.647
 L -60.0958,-57.647 L -62.1832,-57.647 L -62.198,-57.647 L -62.6018,-57.647 L -74.4379,-57.647 L -74.4533,-57.647
 L -76.7339,-57.647 L -76.7454,-57.647 L -82.1911,-55.2714 L -83.0775,-54.8848 L -90.0775,-47.8848 L -90.9306,-45.3086
 L -94.9098,-33.2923 L -95.1297,-32.3667 L -96.1179,-28.2075 L -96.6046,-25.0408 L -98.6193,-11.9316 L -98.9512,-7.53664
 L -99.0314,-6.47499 z
M -96.9314,10.375 L -96.9314,-6.375 L -96.5952,-10.8264 L -96.5193,-11.8316 L -94.4738,-25.1411 L -94.0179,-28.1075
 L -93.8169,-28.9534 L -92.8098,-33.1923 L -88.7813,-45.3573 L -88.7384,-45.487 L -88.3958,-44.8937 L -87.8945,-44.3369
 L -87.8854,-44.3267 L -87.2793,-43.8864 L -87.2682,-43.8783 L -87.2557,-43.8728 L -86.5713,-43.568 L -85.8385,-43.4123
 L -85.8251,-43.4094 L -85.0622,-43.4094 L -85.0488,-43.4123 L -84.316,-43.568 L -83.6316,-43.8728 L -83.6191,-43.8783
 L -83.608,-43.8864 L -83.0019,-44.3267 L -82.9928,-44.3369 L -82.4915,-44.8937 L -82.1169,-45.5425 L -82.11,-45.5543
 L -82.1058,-45.5673 L -81.8743,-46.2799 L -81.796,-47.0249 L -81.7946,-47.0385 L -81.796,-47.0521 L -81.8743,-47.7972
 L -82.1058,-48.5097 L -82.11,-48.5228 L -82.1169,-48.5346 L -82.4915,-49.1834 L -82.9928,-49.7402 L -83.0019,-49.7503
 L -83.608,-50.1907 L -83.6191,-50.1987 L -83.6316,-50.2043 L -84.316,-50.509 L -85.0488,-50.6648 L -85.0622,-50.6676
 L -85.0946,-50.6676 L -82.9774,-52.7848 L -81.9569,-52.962 L -75.5272,-54.0783 L -63.3422,-54.0783 L -61.4098,-54.0783
 L -59.4197,-54.0783 L -59.0458,-54.0783 L -46.5268,-54.0783 L -44.0941,-54.0783 L -43.6152,-54.4637 L -41.6086,-56.0783
 L -29.0021,-56.0783 L -25.9747,-56.0783 L -24.8696,-58.2672 L -24.551,-58.8983 L -12.4842,-58.8983 L -8.43524,-58.8983
 L -7.39847,-58.1357 L -4.60153,-56.0783 L 7.62509,-56.0783 L 11.9096,-56.0783 L 12.6088,-54.1466 L 16.253,-44.0783
 L 28.7643,-44.0783 L 28.7886,-44.0783 L 33.3108,-44.0783 L 38.6442,-44.0783 L 40.8354,-44.0783 L 52.9012,-44.0783
 L 58.0137,-44.0783 L 60.5465,-44.0783 L 60.1909,-43.6834 L 59.8163,-43.0346 L 59.8095,-43.0228 L 59.8053,-43.0097
 L 59.5737,-42.2972 L 59.4954,-41.5521 L 59.494,-41.5385 L 59.4954,-41.5249 L 59.5737,-40.7799 L 59.8053,-40.0673
 L 59.8095,-40.0543 L 59.8163,-40.0425 L 60.1909,-39.3937 L 60.6922,-38.8369 L 60.7014,-38.8267 L 61.3075,-38.3864
 L 61.3186,-38.3783 L 61.3311,-38.3728 L 62.0155,-38.068 L 62.7483,-37.9123 L 62.7617,-37.9094 L 63.5245,-37.9094
 L 63.5379,-37.9123 L 64.2707,-38.068 L 64.9551,-38.3728 L 64.9676,-38.3783 L 64.9787,-38.3864 L 65.5848,-38.8267
 L 65.594,-38.8369 L 66.0953,-39.3937 L 66.4699,-40.0425 L 66.4767,-40.0543 L 66.4809,-40.0673 L 66.7124,-40.7799
 L 66.7667,-41.2962 L 68.1327,-40.0544 L 67.7602,-32.6532 L 67.4779,-27.0417 L 67.4754,-26.9923 L 67.369,-24.0454
 L 67.2265,-20.0986 L 67.225,-20.0326 L 67.225,-20.0326 L 67.2249,-20.0295 L 67.1059,-14.9326 L 66.8487,-3.91938
 L 66.8487,-3.91938 L 66.8487,-3.91938 L 66.8486,-3.9159 L 66.8464,-3.82279 L 66.8157,-1.14221 L 66.4462,3.575
 L 66.4462,20.425 L 66.8157,25.1422 L 66.8464,27.8228 L 66.8486,27.9159 L 66.8487,27.9194 L 66.8487,27.9194
 L 66.8487,27.9194 L 67.1059,38.9326 L 67.1823,42.2065 L 66.8496,41.8369 L 66.8404,41.8267 L 66.2343,41.3864
 L 66.2233,41.3783 L 66.2108,41.3728 L 65.5263,41.068 L 64.7935,40.9123 L 64.7802,40.9094 L 64.0173,40.9094
 L 64.0039,40.9123 L 63.2711,41.068 L 62.5867,41.3728 L 62.5742,41.3783 L 62.5631,41.3864 L 61.957,41.8267
 L 61.9478,41.8369 L 61.4465,42.3937 L 61.072,43.0425 L 61.0651,43.0543 L 61.0609,43.0673 L 60.8294,43.7799
 L 60.7511,44.5249 L 60.7496,44.5385 L 60.7511,44.5521 L 60.8294,45.2972 L 61.0609,46.0097 L 61.0651,46.0228
 L 61.072,46.0346 L 61.4465,46.6834 L 61.9478,47.2402 L 61.957,47.2503 L 62.5631,47.6907 L 62.5742,47.6987
 L 62.5867,47.7043 L 63.2711,48.009 L 64.0039,48.1648 L 64.0173,48.1676 L 64.7802,48.1676 L 64.7935,48.1648
 L 65.2153,48.0751 L 63.2842,52.2489 L 57.9638,63.7482 L 56.4994,65.0795 L 53.2007,68.0783 L 48.219,68.0783
 L 36.0965,68.0783 L 35.2797,68.0783 L 33.3108,68.0783 L 28.7886,68.0783 L 28.7643,68.0783 L 16.3515,68.0783
 L 13.2809,59.2932 L 12.1573,56.0783 L 12.1573,56.0783 L 7.62509,56.0783 L -4.60153,56.0783 L -8.70977,58.4359
 L -15.1143,62.1112 L -15.0473,61.4737 L -15.0459,61.4601 L -15.0473,61.4465 L -15.1257,60.7014 L -15.3572,59.9889
 L -15.3614,59.9759 L -15.3682,59.9641 L -15.7428,59.3152 L -16.2441,58.7585 L -16.2533,58.7483 L -16.8594,58.308
 L -16.8705,58.2999 L -16.883,58.2944 L -17.5674,57.9896 L -18.3002,57.8339 L -18.3136,57.831 L -19.0764,57.831
 L -19.0898,57.8339 L -19.8226,57.9896 L -20.507,58.2944 L -20.5196,58.2999 L -20.5306,58.308 L -21.1367,58.7483
 L -21.1459,58.7585 L -21.6472,59.3152 L -22.0218,59.9641 L -22.0286,59.9759 L -22.0328,59.9889 L -22.2644,60.7014
 L -22.3427,61.4465 L -22.3441,61.4601 L -22.3427,61.4737 L -22.2644,62.2188 L -22.0328,62.9313 L -22.0286,62.9443
 L -22.0218,62.9562 L -21.6472,63.605 L -21.1459,64.1618 L -21.1367,64.1719 L -20.5306,64.6123 L -20.5196,64.6203
 L -20.507,64.6259 L -19.9379,64.8793 L -20.799,65.3734 L -31.7594,72.3225 L -35.484,74.6839 L -35.9628,75.0494
 L -35.9628,75.0494 L -37.0583,75.8856 L -37.0969,75.9285 L -43.7169,83.2807 L -43.7171,83.281 L -46.6513,86.5397
 L -46.6513,86.5397 L -46.6829,86.5749 L -46.4418,88.9504 L -46.2601,90.7404 L -52.64,99.5216 L -54.0165,101.416
 L -59.4322,100.937 L -64.8303,95.6499 L -71.7321,88.8899 L -74.0602,88.2455 L -78.0268,87.5496 L -83.4042,83.0178
 L -90.7795,76.8025 L -91.5597,72.1469 L -91.5597,72.1469 L -90.0339,68.1795 L -86.8678,64.127 L -83.0423,59.2306
 L -83.014,59.1944 L -84.7149,55.0442 L -85.0152,54.3114 L -84.5713,54.509 L -83.8385,54.6648 L -83.8251,54.6676
 L -83.0622,54.6676 L -83.0488,54.6648 L -82.316,54.509 L -81.6316,54.2043 L -81.6191,54.1987 L -81.608,54.1907
 L -81.0019,53.7503 L -80.9928,53.7402 L -80.4915,53.1834 L -80.1169,52.5346 L -80.11,52.5228 L -80.1058,52.5097
 L -79.8743,51.7972 L -79.796,51.0521 L -79.7946,51.0385 L -79.796,51.0249 L -79.8743,50.2799 L -80.1058,49.5673
 L -80.11,49.5543 L -80.1169,49.5425 L -80.4915,48.8937 L -80.9928,48.3369 L -81.0019,48.3267 L -81.608,47.8864
 L -81.6191,47.8783 L -81.6316,47.8728 L -82.316,47.568 L -83.0488,47.4123 L -83.0622,47.4094 L -83.4547,47.4094
 L -82.2331,46.3844 L -82.2329,46.3842 L -78.1197,42.9328 L -77.7036,42.4254 L -76.8638,41.4014 L -80.5605,35.6859
 z
M -87.1436,-47.0385 L -87.1065,-47.392 L -86.9967,-47.73 L -86.819,-48.0378 L -86.5812,-48.3019 L -86.2936,-48.5108
 L -85.969,-48.6553 L -85.6213,-48.7292 L -85.2659,-48.7292 L -84.9183,-48.6553 L -84.5936,-48.5108 L -84.3061,-48.3019
 L -84.0683,-48.0378 L -83.8906,-47.73 L -83.7808,-47.392 L -83.7436,-47.0385 L -83.7808,-46.6851 L -83.8906,-46.3471
 L -84.0683,-46.0393 L -84.3061,-45.7752 L -84.5936,-45.5663 L -84.9183,-45.4217 L -85.2659,-45.3479 L -85.6213,-45.3479
 L -85.969,-45.4217 L -86.2936,-45.5663 L -86.5812,-45.7752 L -86.819,-46.0393 L -86.9967,-46.3471 L -87.1065,-46.6851
 z
M -85.1436,51.0385 L -85.1065,50.6851 L -84.9967,50.3471 L -84.819,50.0393 L -84.5812,49.7752 L -84.2936,49.5663
 L -83.969,49.4217 L -83.6213,49.3479 L -83.2659,49.3479 L -82.9183,49.4217 L -82.5936,49.5663 L -82.3061,49.7752
 L -82.0683,50.0393 L -81.8906,50.3471 L -81.7808,50.6851 L -81.7436,51.0385 L -81.7808,51.392 L -81.8906,51.73
 L -82.0683,52.0378 L -82.3061,52.3019 L -82.5936,52.5108 L -82.9183,52.6553 L -83.2659,52.7292 L -83.6213,52.7292
 L -83.969,52.6553 L -84.2936,52.5108 L -84.5812,52.3019 L -84.819,52.0378 L -84.9967,51.73 L -85.1065,51.392
 z
M -20.395,61.4601 L -20.3579,61.1067 L -20.248,60.7687 L -20.0703,60.4609 L -19.8325,60.1968 L -19.545,59.9879
 L -19.2203,59.8433 L -18.8727,59.7694 L -18.5173,59.7694 L -18.1697,59.8433 L -17.845,59.9879 L -17.5575,60.1968
 L -17.3197,60.4609 L -17.142,60.7687 L -17.0322,61.1067 L -16.995,61.4601 L -17.0322,61.8136 L -17.142,62.1516
 L -17.3197,62.4594 L -17.5575,62.7235 L -17.845,62.9324 L -18.1697,63.0769 L -18.5173,63.1508 L -18.8727,63.1508
 L -19.2203,63.0769 L -19.545,62.9324 L -19.8325,62.7235 L -20.0703,62.4594 L -20.248,62.1516 L -20.3579,61.8136
 z
M 61.4431,-41.5385 L 61.4802,-41.892 L 61.5901,-42.23 L 61.7678,-42.5378 L 62.0056,-42.8019 L 62.2931,-43.0108
 L 62.6178,-43.1553 L 62.9654,-43.2292 L 63.3208,-43.2292 L 63.6684,-43.1553 L 63.9931,-43.0108 L 64.2806,-42.8019
 L 64.5184,-42.5378 L 64.6961,-42.23 L 64.8059,-41.892 L 64.8431,-41.5385 L 64.8059,-41.1851 L 64.6961,-40.8471
 L 64.5184,-40.5393 L 64.2806,-40.2752 L 63.9931,-40.0663 L 63.6684,-39.9217 L 63.3208,-39.8479 L 62.9654,-39.8479
 L 62.6178,-39.9217 L 62.2931,-40.0663 L 62.0056,-40.2752 L 61.7678,-40.5393 L 61.5901,-40.8471 L 61.4802,-41.1851
 z
M 62.6987,44.5385 L 62.7359,44.1851 L 62.8457,43.8471 L 63.0234,43.5393 L 63.2612,43.2752 L 63.5487,43.0663
 L 63.8734,42.9217 L 64.221,42.8479 L 64.5764,42.8479 L 64.924,42.9217 L 65.2487,43.0663 L 65.5362,43.2752
 L 65.774,43.5393 L 65.9517,43.8471 L 66.0616,44.1851 L 66.0987,44.5385 L 66.0616,44.892 L 65.9517,45.23
 L 65.774,45.5378 L 65.5362,45.8019 L 65.2487,46.0108 L 64.924,46.1553 L 64.5764,46.2292 L 64.221,46.2292
 L 63.8734,46.1553 L 63.5487,46.0108 L 63.2612,45.8019 L 63.0234,45.5378 L 62.8457,45.23 L 62.7359,44.892
 z
" stroke="black" fill="lightgray" stroke-width="0.5"/>
</svg>
